P3
# CREATOR: GIMP PNM Filter Version 1.1
64 64
255
255
255
255
255
255
255
255
255
255
255
255
255
255
255
255
255
255
255
255
255
255
255
255
255
255
255
255
255
255
255
255
255
255
255
255
255
255
255
255
255
255
255
255
255
255
255
255
255
255
255
255
255
255
255
255
255
255
255
255
255
255
255
255
255
255
255
255
255
255
255
255
255
255
255
255
255
255
255
255
255
255
255
255
255
255
255
255
255
255
255
255
255
255
255
255
255
255
255
255
255
255
255
255
255
255
255
255
255
255
255
255
255
255
255
255
255
255
255
255
255
255
255
255
255
255
255
255
255
255
255
255
255
255
255
255
255
255
255
255
255
255
255
255
255
255
255
255
255
255
255
255
255
255
255
255
255
255
255
255
255
255
255
255
255
255
255
255
255
255
255
255
255
255
255
255
255
255
255
255
255
255
255
255
255
255
255
255
255
255
255
255
255
255
255
255
255
255
255
255
255
255
255
255
255
255
255
255
255
255
255
255
255
255
255
255
255
255
255
255
255
255
255
255
255
255
255
255
255
255
255
255
255
255
255
255
255
255
255
255
255
255
255
255
255
255
255
255
255
255
255
255
255
255
255
255
255
255
255
255
255
255
255
255
255
255
255
255
255
255
255
255
255
255
255
255
255
255
255
255
255
255
255
248
248
248
255
255
255
234
234
234
255
255
255
255
255
255
255
255
255
255
255
255
255
255
255
255
255
255
255
255
255
255
255
255
255
255
255
255
255
255
255
255
255
255
255
255
255
255
255
255
255
255
255
255
255
255
255
255
255
255
255
255
255
255
255
255
255
255
255
255
255
255
255
255
255
255
255
255
255
255
255
255
255
255
255
255
255
255
255
255
255
255
255
255
255
255
255
255
255
255
255
255
255
255
255
255
255
255
255
255
255
255
255
255
255
255
255
255
255
255
255
255
255
255
255
255
255
255
255
255
255
255
255
255
255
255
255
255
255
255
255
255
255
255
255
255
255
255
255
255
255
255
255
255
255
255
255
255
255
255
255
255
255
255
255
255
255
255
255
255
255
255
255
255
255
238
238
238
255
255
255
255
255
255
255
255
255
255
255
255
185
184
184
214
213
213
255
255
255
143
141
141
237
237
237
255
255
255
255
255
255
255
255
255
186
185
185
255
255
255
255
255
255
247
247
247
255
255
255
255
255
255
255
255
255
255
255
255
255
255
255
255
255
255
255
255
255
255
255
255
255
255
255
255
255
255
255
255
255
255
255
255
255
255
255
255
255
255
255
255
255
255
255
255
255
255
255
255
255
255
255
255
255
255
255
255
255
255
255
255
255
255
255
255
255
255
255
255
255
255
255
255
255
255
255
255
255
255
255
255
255
255
255
255
255
255
255
255
255
255
255
255
255
255
255
255
255
255
255
255
255
255
255
255
255
255
255
255
255
255
255
255
255
255
255
255
255
255
255
255
255
255
255
255
255
255
255
255
255
255
255
198
197
197
255
255
255
219
218
218
142
140
140
252
252
252
255
255
255
205
204
204
35
32
32
233
233
233
255
255
255
206
205
205
55
52
52
187
186
186
214
213
213
145
143
143
107
105
105
255
255
255
255
255
255
169
168
168
255
255
255
255
255
255
255
255
255
255
255
255
255
255
255
255
255
255
255
255
255
255
255
255
255
255
255
255
255
255
255
255
255
255
255
255
255
255
255
255
255
255
255
255
255
255
255
255
255
255
255
255
255
255
255
255
255
255
255
255
255
255
255
255
255
255
255
255
255
255
255
255
255
255
255
255
255
255
255
255
255
255
255
255
255
255
255
255
255
255
255
255
255
255
255
255
255
255
255
255
255
255
255
255
255
255
255
255
255
255
255
255
255
255
255
255
255
255
255
255
255
255
255
255
255
255
255
255
255
255
255
255
246
246
246
93
91
91
255
255
255
255
255
255
68
65
65
35
32
32
38
36
36
35
32
32
35
32
32
246
246
246
255
255
255
255
255
255
35
32
32
35
32
32
35
32
32
35
32
32
183
182
182
255
255
255
255
255
255
48
45
45
232
231
231
255
255
255
255
255
255
254
254
254
230
230
230
255
255
255
255
255
255
255
255
255
255
255
255
255
255
255
255
255
255
255
255
255
255
255
255
255
255
255
255
255
255
255
255
255
255
255
255
255
255
255
255
255
255
255
255
255
255
255
255
255
255
255
255
255
255
255
255
255
255
255
255
255
255
255
255
255
255
255
255
255
255
255
255
255
255
255
255
255
255
255
255
255
255
255
255
255
255
255
255
255
255
255
255
255
255
255
255
255
255
255
255
255
255
255
255
255
239
239
239
255
255
255
255
255
255
255
255
255
178
177
177
35
32
32
255
255
255
255
255
255
234
234
234
35
32
32
35
32
32
35
32
32
81
78
78
255
255
255
255
255
255
255
255
255
154
153
153
111
109
109
73
70
70
35
32
32
253
253
253
255
255
255
255
255
255
46
43
43
41
38
38
145
143
143
162
161
161
60
57
57
246
245
245
255
255
255
247
247
247
255
255
255
255
255
255
255
255
255
255
255
255
255
255
255
255
255
255
255
255
255
255
255
255
255
255
255
255
255
255
255
255
255
255
255
255
255
255
255
255
255
255
255
255
255
255
255
255
255
255
255
255
255
255
255
255
255
255
255
255
255
255
255
255
255
255
255
255
255
255
255
255
255
255
255
255
255
255
255
255
255
255
255
255
255
255
255
255
255
255
254
254
254
255
255
255
255
255
255
209
209
209
81
78
78
130
128
128
100
98
98
35
32
32
35
32
32
230
230
230
255
255
255
255
255
255
233
233
233
208
207
207
183
182
182
145
144
144
113
111
111
104
102
102
101
99
99
107
105
105
120
118
118
146
145
145
186
185
185
225
224
224
255
255
255
255
255
255
93
91
91
35
32
32
35
32
32
35
32
32
154
153
153
255
255
255
255
255
255
158
156
156
255
255
255
255
255
255
255
255
255
255
255
255
255
255
255
255
255
255
255
255
255
255
255
255
255
255
255
255
255
255
255
255
255
255
255
255
255
255
255
255
255
255
255
255
255
255
255
255
255
255
255
255
255
255
255
255
255
255
255
255
255
255
255
255
255
255
255
255
255
255
255
255
255
255
255
255
255
255
255
255
255
255
255
255
255
255
255
255
255
255
255
255
255
121
119
119
255
255
255
255
255
255
178
177
177
35
32
32
35
32
32
58
56
56
144
142
142
227
227
227
186
185
185
104
102
102
35
32
32
35
32
32
35
32
32
35
32
32
35
32
32
35
32
32
35
32
32
35
32
32
35
32
32
35
32
32
35
32
32
35
32
32
35
32
32
110
108
108
201
200
200
223
223
223
133
132
132
92
90
90
255
255
255
255
255
255
255
255
255
55
52
52
255
255
255
255
255
255
255
255
255
255
255
255
255
255
255
255
255
255
255
255
255
255
255
255
255
255
255
255
255
255
255
255
255
255
255
255
255
255
255
255
255
255
255
255
255
255
255
255
255
255
255
255
255
255
255
255
255
255
255
255
255
255
255
255
255
255
255
255
255
255
255
255
255
255
255
255
255
255
255
255
255
255
255
255
255
255
255
255
255
255
255
255
255
37
34
34
229
229
229
255
255
255
255
255
255
122
120
120
187
186
186
243
243
243
91
89
89
35
32
32
35
32
32
35
32
32
35
32
32
35
32
32
35
32
32
35
32
32
35
32
32
35
32
32
35
32
32
35
32
32
35
32
32
35
32
32
35
32
32
35
32
32
35
32
32
35
32
32
35
32
32
35
32
32
103
101
101
243
243
243
254
254
254
255
255
255
214
214
214
35
32
32
130
128
128
254
254
254
255
255
255
255
255
255
254
254
254
255
255
255
255
255
255
255
255
255
255
255
255
255
255
255
255
255
255
255
255
255
255
255
255
255
255
255
255
255
255
255
255
255
255
255
255
255
255
255
255
255
255
255
255
255
255
255
255
255
255
255
255
255
255
255
255
255
255
255
255
255
255
255
255
255
255
255
255
255
255
255
255
255
255
255
237
237
237
37
34
34
139
138
138
255
255
255
255
255
255
233
233
233
82
80
80
35
32
32
35
32
32
35
32
32
35
32
32
35
32
32
32
32
32
25
32
32
27
32
32
72
33
33
104
33
35
123
33
35
131
33
36
124
33
35
102
33
35
70
33
33
26
32
32
26
32
32
32
32
32
35
32
32
35
32
32
35
32
32
35
32
32
37
34
34
89
87
87
246
245
245
187
186
186
35
32
32
36
33
33
72
70
70
111
109
109
94
91
91
248
248
248
255
255
255
255
255
255
255
255
255
255
255
255
255
255
255
255
255
255
255
255
255
255
255
255
255
255
255
255
255
255
255
255
255
255
255
255
255
255
255
255
255
255
255
255
255
255
255
255
255
255
255
255
255
255
255
255
255
255
255
255
255
255
255
249
249
249
189
188
188
209
209
209
183
182
182
64
62
62
35
32
32
82
79
79
255
255
255
139
137
137
35
32
32
35
32
32
35
32
32
35
32
32
29
32
32
38
32
32
99
32
34
158
33
36
215
33
38
252
33
40
223
33
39
200
33
38
186
33
38
181
33
37
186
33
38
201
33
38
224
33
39
252
33
40
213
33
38
155
33
36
95
32
34
36
32
32
30
32
32
35
32
32
35
32
32
35
32
32
35
32
32
154
153
153
212
211
211
61
58
58
35
32
32
76
74
74
241
241
241
255
255
255
233
232
232
248
248
248
255
255
255
255
255
255
255
255
255
255
255
255
255
255
255
255
255
255
255
255
255
255
255
255
255
255
255
255
255
255
255
255
255
255
255
255
255
255
255
255
255
255
255
255
255
255
255
255
255
255
255
255
255
255
254
254
254
255
255
255
246
245
245
59
56
56
35
32
32
35
32
32
91
89
89
240
240
240
57
54
54
35
32
32
35
32
32
35
32
32
34
32
32
50
32
33
144
33
36
244
33
39
221
33
39
169
32
35
83
32
33
35
41
41
46
51
51
51
54
54
52
54
54
53
54
54
52
54
54
51
54
54
46
51
51
36
41
40
87
31
33
172
32
35
222
33
39
241
33
40
135
33
36
49
32
33
34
32
32
35
32
32
35
32
32
35
32
32
70
68
68
245
245
245
115
113
113
255
255
255
255
255
255
254
254
254
77
75
75
255
255
255
255
255
255
255
255
255
255
255
255
255
255
255
255
255
255
255
255
255
255
255
255
255
255
255
255
255
255
255
255
255
255
255
255
255
255
255
255
255
255
255
255
255
255
255
255
255
255
255
255
255
255
255
255
255
156
154
154
255
255
255
255
255
255
253
253
253
146
145
145
152
151
151
206
205
205
38
35
35
35
32
32
35
32
32
35
32
32
33
32
32
169
33
37
234
33
39
187
33
38
56
30
31
35
27
27
134
133
133
189
187
187
124
122
122
65
63
63
47
44
44
47
44
44
47
44
44
47
44
44
47
44
44
66
63
63
128
126
126
189
189
189
128
127
127
34
26
26
62
30
31
194
33
38
233
33
39
158
33
36
29
32
32
35
32
32
35
32
32
35
32
32
43
40
40
227
226
226
255
255
255
255
255
255
158
156
156
59
56
56
255
255
255
255
255
255
255
255
255
255
255
255
255
255
255
255
255
255
255
255
255
255
255
255
255
255
255
255
255
255
255
255
255
255
255
255
255
255
255
255
255
255
255
255
255
255
255
255
255
255
255
255
255
255
255
255
255
189
189
189
101
99
99
255
255
255
255
255
255
255
255
255
184
183
183
35
32
32
35
32
32
35
32
32
31
32
32
108
32
35
230
33
39
186
33
37
62
22
23
95
99
99
142
140
140
105
104
104
55
52
52
26
23
23
31
28
28
34
31
31
35
32
32
34
31
31
57
54
54
34
31
31
35
32
32
34
31
31
31
28
28
26
23
23
58
55
55
106
104
104
144
143
143
86
89
89
69
24
25
197
33
38
226
33
39
99
33
34
31
32
32
35
32
32
35
32
32
35
32
32
198
197
197
227
227
227
35
32
32
35
32
32
240
240
240
255
255
255
255
255
255
255
255
255
255
255
255
255
255
255
255
255
255
255
255
255
255
255
255
255
255
255
255
255
255
255
255
255
255
255
255
255
255
255
255
255
255
255
255
255
255
255
255
255
255
255
255
255
255
202
201
201
35
32
32
145
144
144
255
255
255
182
181
181
35
32
32
35
32
32
35
32
32
36
32
32
143
32
36
232
33
39
108
28
30
56
64
63
155
154
154
88
86
86
24
21
21
35
32
32
33
30
30
55
52
52
35
32
32
35
32
32
34
31
31
32
29
29
152
151
151
31
28
28
35
32
32
33
30
30
35
32
32
36
33
33
54
51
51
35
32
32
22
19
19
97
95
95
147
145
145
48
58
58
119
28
31
235
33
39
132
32
36
35
32
32
35
32
32
35
32
32
35
32
32
208
207
207
113
111
111
35
32
32
72
70
70
209
209
209
224
224
224
238
238
238
255
255
255
255
255
255
255
255
255
255
255
255
255
255
255
255
255
255
255
255
255
255
255
255
255
255
255
255
255
255
255
255
255
255
255
255
255
255
255
255
255
255
255
255
255
100
98
98
35
32
32
84
82
82
220
220
220
35
32
32
35
32
32
35
32
32
28
32
32
191
33
37
224
33
39
45
31
31
130
128
128
113
111
111
34
31
31
35
32
32
35
32
32
35
32
32
27
23
23
111
110
110
35
32
32
30
27
27
79
77
77
32
29
29
147
146
146
31
28
28
45
42
42
86
83
83
34
31
31
89
86
86
51
49
49
35
32
32
35
32
32
35
32
32
34
31
31
131
129
129
119
118
118
48
32
32
226
33
39
176
32
37
29
32
32
35
32
32
35
32
32
35
32
32
237
237
237
63
61
61
35
32
32
37
34
34
136
134
134
254
254
254
255
255
255
255
255
255
255
255
255
255
255
255
255
255
255
255
255
255
255
255
255
255
255
255
255
255
255
255
255
255
255
255
255
255
255
255
202
202
202
165
164
164
78
76
76
35
32
32
59
56
56
250
250
250
44
42
42
35
32
32
35
32
32
27
32
32
196
33
38
200
33
39
37
27
28
169
167
167
58
55
55
31
28
28
34
31
31
35
32
32
37
34
34
31
28
28
33
31
31
97
95
95
29
26
26
28
25
25
86
83
83
74
72
72
148
146
146
68
66
66
72
70
70
47
44
44
33
30
30
105
103
103
27
24
24
35
32
32
32
29
29
35
32
32
35
32
32
30
27
27
64
61
61
172
172
172
42
29
30
206
33
38
186
33
37
29
32
32
35
32
32
35
32
32
50
47
47
241
241
241
172
171
171
241
241
241
255
255
255
255
255
255
251
251
251
255
255
255
255
255
255
255
255
255
255
255
255
255
255
255
255
255
255
255
255
255
255
255
255
255
255
255
255
255
255
255
255
255
241
241
241
162
161
161
92
90
90
35
32
32
208
208
208
80
77
77
35
32
32
35
32
32
35
32
32
183
33
37
200
33
38
44
40
41
159
158
158
38
35
35
35
32
32
46
43
43
91
88
88
31
28
28
48
45
45
123
121
121
66
64
64
81
78
78
50
47
47
71
68
68
126
125
125
158
157
157
165
165
165
156
155
155
121
119
119
57
54
54
43
40
40
98
96
96
58
56
56
52
49
49
75
73
73
35
32
32
38
35
35
58
55
55
34
31
31
41
38
38
156
154
154
45
37
37
210
33
39
168
32
37
34
32
32
35
32
32
35
32
32
103
101
101
255
255
255
255
255
255
255
255
255
200
199
199
149
147
147
255
255
255
255
255
255
255
255
255
255
255
255
255
255
255
255
255
255
255
255
255
255
255
255
255
255
255
254
254
254
251
251
251
255
255
255
255
255
255
255
255
255
255
255
255
172
171
171
35
32
32
35
32
32
31
32
32
123
32
36
229
33
39
42
29
29
156
154
154
25
22
22
35
32
32
35
32
32
34
30
30
105
104
104
60
57
57
39
36
36
107
105
105
90
88
88
137
136
136
172
170
170
99
97
97
36
32
32
27
24
24
27
24
24
27
24
24
34
32
32
98
96
96
146
145
145
114
112
112
145
143
143
162
160
160
35
32
32
33
30
30
162
160
160
34
31
31
35
32
32
35
32
32
24
21
21
151
149
149
46
29
29
229
33
39
112
32
35
32
32
32
35
32
32
35
32
32
183
182
182
255
255
255
187
186
186
35
32
32
237
237
237
255
255
255
255
255
255
255
255
255
255
255
255
255
255
255
255
255
255
255
255
255
255
255
255
255
255
255
255
255
255
99
97
97
222
222
222
255
255
255
255
255
255
255
255
255
37
34
34
35
32
32
35
32
32
85
32
34
237
33
39
52
31
32
165
165
165
37
34
34
35
32
32
35
32
32
32
29
29
34
31
31
30
27
27
132
131
131
59
56
56
153
151
151
71
68
68
42
39
39
34
31
31
34
31
31
35
32
32
35
32
32
35
32
32
35
32
32
35
32
32
34
31
31
34
31
31
42
39
39
71
69
69
152
150
150
92
90
90
96
93
93
36
33
33
35
32
32
32
29
29
35
32
32
35
32
32
44
41
41
169
168
168
61
32
33
241
33
39
71
33
33
35
32
32
35
32
32
51
49
49
251
251
251
37
34
34
35
32
32
255
255
255
255
255
255
255
255
255
255
255
255
255
255
255
255
255
255
255
255
255
255
255
255
255
255
255
255
255
255
255
255
255
242
242
242
35
32
32
133
132
132
254
254
254
120
119
119
35
32
32
35
32
32
25
32
32
211
33
38
142
30
33
106
103
103
75
73
73
32
29
29
30
27
27
35
32
32
63
60
60
121
120
120
82
79
79
131
129
129
120
117
117
32
29
29
34
31
31
35
32
32
35
32
32
35
32
32
35
32
32
35
32
32
35
32
32
35
32
32
35
32
32
35
32
32
35
32
32
35
32
32
34
31
31
34
31
31
104
102
102
138
136
136
124
122
122
65
63
63
91
89
89
35
32
32
35
32
32
34
31
31
80
77
77
85
84
84
153
31
34
201
33
38
27
32
32
35
32
32
35
32
32
145
143
143
95
92
92
35
32
32
145
144
144
255
255
255
255
255
255
255
255
255
255
255
255
255
255
255
255
255
255
255
255
255
255
255
255
255
255
255
255
255
255
255
255
255
40
37
37
41
38
38
255
255
255
49
46
46
35
32
32
34
32
32
124
33
35
220
33
39
35
46
45
150
149
149
29
26
26
59
56
56
113
111
111
37
35
35
45
42
42
54
52
52
114
112
112
81
79
79
31
28
28
34
31
31
35
32
32
35
32
32
35
32
32
35
32
32
35
32
32
35
32
32
35
32
32
35
32
32
35
32
32
35
32
32
35
32
32
35
32
32
35
32
32
35
32
32
30
27
27
96
93
93
80
78
78
114
112
112
27
23
23
34
32
32
30
32
32
44
32
32
63
27
27
171
170
170
36
42
42
233
33
39
101
32
35
34
32
32
35
32
32
53
50
50
243
243
243
35
32
32
35
32
32
114
112
112
214
214
214
252
252
252
255
255
255
255
255
255
255
255
255
255
255
255
255
255
255
255
255
255
255
255
255
197
196
196
35
32
32
89
87
87
171
170
170
35
32
32
35
32
32
41
32
32
223
33
39
97
27
29
124
122
122
37
34
34
35
32
32
35
32
32
36
33
33
159
157
157
41
38
38
176
174
174
52
49
49
35
32
32
71
68
68
81
79
79
34
31
31
35
32
32
35
32
32
35
32
32
35
32
32
35
32
32
35
32
32
35
32
32
35
32
32
35
32
32
35
32
32
35
32
32
35
32
32
35
32
32
35
32
32
35
32
32
41
38
38
35
32
32
33
32
32
77
32
33
186
33
38
235
33
39
232
33
39
35
32
32
111
109
109
104
29
31
224
33
39
40
32
32
35
32
32
35
32
32
206
205
205
123
121
121
146
145
145
218
217
217
255
255
255
255
255
255
255
255
255
255
255
255
255
255
255
255
255
255
255
255
255
255
255
255
152
151
151
36
33
33
35
32
32
191
190
190
45
42
42
35
32
32
33
32
32
85
32
34
231
33
39
54
55
54
140
138
138
35
32
32
35
32
32
31
28
28
34
31
31
62
60
60
112
110
110
86
84
84
34
31
31
35
32
32
83
81
81
255
255
255
141
139
139
181
179
179
81
79
79
34
31
31
35
32
32
35
32
32
35
32
32
35
32
32
35
32
32
35
32
32
35
32
32
35
32
32
35
32
32
34
32
32
27
32
32
35
32
32
120
33
35
191
33
38
223
33
39
239
33
39
235
33
39
234
33
39
238
33
39
113
33
35
153
153
153
44
38
38
240
33
39
72
32
33
34
32
32
35
32
32
63
61
61
255
255
255
255
255
255
255
255
255
255
255
255
255
255
255
255
255
255
255
255
255
255
255
255
255
255
255
255
255
255
190
189
189
158
156
156
144
142
142
119
117
117
233
233
233
35
32
32
35
32
32
27
32
32
207
33
38
111
32
34
135
137
137
25
22
22
35
32
32
34
31
31
77
74
74
96
94
94
80
77
77
145
144
144
29
26
26
36
33
33
94
92
92
202
202
202
255
255
255
255
255
255
221
220
220
24
21
21
35
32
32
35
32
32
35
32
32
35
32
32
35
32
32
35
32
32
35
32
32
35
32
32
35
32
32
43
32
32
116
32
35
186
33
38
244
33
40
240
33
39
234
33
39
234
33
39
234
33
39
235
33
39
241
33
39
233
33
39
164
33
37
31
32
32
135
138
138
134
33
35
187
33
38
26
32
32
35
32
32
35
32
32
233
232
232
255
255
255
252
252
252
166
165
165
175
174
174
255
255
255
255
255
255
255
255
255
255
255
255
255
255
255
255
255
255
255
255
255
255
255
255
255
255
255
186
185
185
35
32
32
35
32
32
58
32
33
236
33
39
42
25
25
123
121
121
32
29
29
39
36
36
34
31
31
34
31
31
41
38
38
184
184
184
49
46
46
35
32
32
38
35
35
186
186
186
250
250
250
255
255
255
255
255
255
179
177
177
33
30
30
35
32
32
35
32
32
35
32
32
35
32
32
34
32
32
38
32
32
35
32
32
35
32
32
35
32
32
54
32
33
231
33
39
234
33
39
234
33
39
234
33
39
234
33
39
234
33
39
234
33
39
213
33
38
99
33
34
25
32
32
32
32
32
30
27
27
126
124
124
42
28
28
242
33
39
46
32
32
35
32
32
35
32
32
197
196
196
180
179
179
35
32
32
70
68
68
255
255
255
255
255
255
255
255
255
255
255
255
255
255
255
193
192
192
184
183
183
255
255
255
255
255
255
255
255
255
112
110
110
35
32
32
35
32
32
102
32
35
222
33
38
52
47
47
103
100
100
35
32
32
107
105
105
149
147
147
52
49
49
53
51
51
119
117
117
30
27
27
35
32
32
35
32
32
33
30
30
103
101
101
255
255
255
224
223
223
255
255
255
54
51
51
35
32
32
35
32
32
27
32
32
69
32
33
171
33
37
200
33
38
30
32
32
35
32
32
35
32
32
34
32
32
221
33
39
234
33
39
238
33
39
243
33
39
234
33
39
234
33
39
234
33
39
223
33
39
25
32
32
35
32
32
35
32
32
35
32
32
105
103
103
35
29
29
221
33
39
95
32
34
35
32
32
35
32
32
140
139
139
151
150
150
35
32
32
189
189
189
255
255
255
255
255
255
255
255
255
255
255
255
255
255
255
255
255
255
132
131
131
45
42
42
110
108
108
253
253
253
51
48
48
35
32
32
31
32
32
151
33
36
171
32
36
144
144
144
48
46
46
35
32
32
31
28
28
30
27
27
77
74
74
99
97
97
55
52
52
35
32
32
35
32
32
35
32
32
35
32
32
83
81
81
153
152
152
27
25
25
21
26
26
41
43
44
35
32
32
27
32
32
176
33
37
242
33
39
236
33
39
241
33
39
56
33
33
35
32
32
35
32
32
33
32
32
114
32
35
144
33
36
84
32
34
35
32
32
212
33
38
234
33
39
234
33
39
240
33
39
63
32
33
35
32
32
35
32
32
35
32
32
64
61
61
112
111
111
189
32
37
139
32
36
34
32
32
35
32
32
81
78
78
198
197
197
35
32
32
151
150
150
255
255
255
255
255
255
255
255
255
255
255
255
255
255
255
255
255
255
253
253
253
35
32
32
35
32
32
235
235
235
35
32
32
35
32
32
27
32
32
195
33
38
105
32
33
183
183
183
25
22
22
35
32
32
36
33
33
35
32
32
82
80
80
169
168
168
39
36
36
35
32
32
35
32
32
35
32
32
35
32
32
35
32
32
50
29
29
86
32
34
172
33
37
232
33
39
40
32
32
33
32
32
105
32
35
234
33
39
234
33
39
237
33
39
160
33
36
33
32
32
35
32
32
35
32
32
32
32
32
33
32
32
35
32
32
35
32
32
169
33
37
236
33
39
234
33
39
235
33
39
113
32
35
34
32
32
35
32
32
35
32
32
29
26
26
183
183
183
127
31
33
182
33
37
29
32
32
35
32
32
36
33
33
226
225
225
35
32
32
35
32
32
208
208
208
255
255
255
255
255
255
255
255
255
255
255
255
255
255
255
255
255
255
35
32
32
35
32
32
221
221
221
35
32
32
35
32
32
23
32
32
229
33
39
61
35
35
157
155
155
28
25
25
35
32
32
40
37
37
137
135
135
151
149
149
170
169
169
32
29
29
35
32
32
34
32
32
33
32
32
40
32
32
29
32
32
220
33
39
234
33
39
234
33
39
233
33
39
52
32
33
35
32
32
60
32
33
233
33
39
234
33
39
234
33
39
224
33
39
39
32
32
35
32
32
35
32
32
35
32
32
35
32
32
35
32
32
35
32
32
75
33
33
243
33
39
234
33
39
234
33
39
182
33
37
28
32
32
35
32
32
35
32
32
27
24
24
183
182
182
81
31
32
213
33
39
26
32
32
35
32
32
35
32
32
247
247
247
170
168
168
141
140
140
113
111
111
158
156
156
254
254
254
255
255
255
255
255
255
255
255
255
189
188
188
35
32
32
35
32
32
216
216
216
35
32
32
35
32
32
21
32
32
251
33
40
34
38
38
125
123
123
30
27
27
35
32
32
35
32
32
32
28
28
28
28
28
21
28
28
61
33
33
147
33
36
200
33
38
233
33
39
103
32
35
32
32
32
117
33
35
237
33
39
234
33
39
235
33
39
134
33
36
31
32
32
34
32
32
228
33
39
234
33
39
234
33
39
232
33
39
54
32
33
35
32
32
35
32
32
35
32
32
35
32
32
35
32
32
35
32
32
24
32
32
219
33
39
234
33
39
234
33
39
242
33
39
34
32
32
35
32
32
35
32
32
29
26
26
153
152
152
55
36
36
234
33
39
24
32
32
35
32
32
35
32
32
233
233
233
255
255
255
255
255
255
255
255
255
255
255
255
255
255
255
255
255
255
254
254
254
197
196
196
75
72
72
102
100
100
145
144
144
202
201
201
35
32
32
35
32
32
25
32
32
251
33
40
34
40
39
111
109
109
30
28
28
29
32
32
35
32
32
79
32
33
133
33
36
209
33
38
245
33
39
237
33
39
234
33
39
234
33
39
174
33
37
28
32
32
38
32
32
232
33
39
234
33
39
234
33
39
229
33
39
29
32
32
32
32
32
137
33
36
237
33
39
234
33
39
235
33
39
116
32
35
32
32
32
35
32
32
35
32
32
35
32
32
35
32
32
35
32
32
32
32
32
153
33
37
234
33
39
234
33
39
240
33
39
117
33
35
35
32
32
35
32
32
30
27
27
134
133
133
42
38
39
244
33
39
23
32
32
35
32
32
35
32
32
220
219
219
255
255
255
255
255
255
255
255
255
227
227
227
254
254
254
255
255
255
255
255
255
255
255
255
255
255
255
255
255
255
255
255
255
195
195
195
35
32
32
35
32
32
28
32
31
250
33
39
34
40
39
111
110
110
57
28
29
160
33
37
240
33
39
237
33
39
234
33
39
234
33
39
234
33
39
234
33
39
235
33
39
232
33
39
232
33
39
26
32
32
36
32
32
206
33
38
234
33
39
234
33
39
239
33
39
71
32
33
35
32
32
40
32
32
238
33
39
234
33
39
234
33
39
215
33
39
26
32
32
35
32
32
35
32
32
35
32
32
34
32
32
38
32
32
35
32
32
94
32
34
238
33
39
234
33
39
234
33
39
192
33
38
35
32
32
35
32
32
30
27
27
134
133
133
43
38
39
244
33
39
23
32
32
35
32
32
35
32
32
220
219
219
138
136
136
74
71
71
36
33
33
220
219
219
255
255
255
255
255
255
255
255
255
255
255
255
255
255
255
255
255
255
255
255
255
208
208
208
35
32
32
35
32
32
21
32
31
253
33
40
31
38
38
118
122
121
191
28
33
235
33
39
234
33
39
234
33
39
234
33
39
234
33
39
234
33
39
227
33
39
127
33
35
57
32
33
40
32
32
35
32
32
35
32
32
153
33
36
237
33
39
234
33
39
234
33
39
124
32
35
34
32
32
34
32
32
207
33
38
234
33
39
234
33
39
242
33
39
63
32
33
32
32
32
25
32
32
78
33
34
177
33
37
210
33
38
34
32
32
38
32
32
246
33
39
234
33
39
234
33
39
222
33
39
35
32
32
35
32
32
29
26
26
148
147
147
53
37
37
236
33
39
24
32
32
35
32
32
35
32
32
217
217
217
35
32
32
35
32
32
223
223
223
255
255
255
255
255
255
255
255
255
254
254
254
194
193
193
106
104
104
126
124
124
137
135
135
224
224
224
35
32
32
35
32
32
23
32
32
233
33
39
57
35
35
153
152
152
132
26
29
235
33
39
239
33
39
240
33
39
230
33
39
234
33
39
234
33
39
236
33
39
27
32
32
35
32
32
35
32
32
35
32
32
35
32
32
60
32
33
246
33
39
234
33
39
234
33
39
193
33
38
26
32
32
35
32
32
163
33
36
236
33
39
234
33
39
235
33
39
162
33
36
166
33
37
222
33
39
243
33
39
236
33
39
232
33
39
55
32
33
27
32
32
177
33
37
246
33
39
203
33
38
139
32
36
37
32
32
35
32
32
28
24
24
179
178
178
76
32
33
216
33
38
26
32
32
35
32
32
35
32
32
225
224
224
35
32
32
77
75
75
255
255
255
255
255
255
255
255
255
255
255
255
255
255
255
255
255
255
201
200
200
35
32
32
35
32
32
227
226
226
35
32
32
35
32
32
26
32
32
200
33
38
99
32
33
183
183
183
64
23
24
206
33
38
123
33
35
30
32
32
146
33
36
234
33
39
234
33
39
240
33
39
115
33
35
35
32
32
35
32
32
35
32
32
35
32
32
24
32
32
212
33
38
234
33
39
234
33
39
246
33
39
40
32
33
35
32
32
78
33
33
244
33
39
234
33
39
234
33
39
235
33
39
234
33
39
234
33
39
234
33
39
235
33
39
237
33
39
93
32
34
33
32
32
58
32
33
46
30
30
25
32
32
34
32
32
35
32
32
35
32
32
28
25
25
184
184
184
120
31
34
186
33
38
29
32
32
35
32
32
35
32
32
227
227
227
35
32
32
52
49
49
255
255
255
255
255
255
255
255
255
255
255
255
255
255
255
255
255
255
255
255
255
124
122
122
35
32
32
211
210
210
51
48
48
35
32
32
31
32
32
156
33
36
161
32
35
150
151
151
45
42
42
36
32
32
35
32
32
35
32
32
85
32
34
236
33
39
234
33
39
234
33
39
203
33
38
35
32
32
35
32
32
35
32
32
35
32
32
33
32
32
142
32
36
234
33
39
234
33
39
239
33
39
131
33
36
35
32
32
23
32
32
224
33
39
234
33
39
234
33
39
234
33
39
234
33
39
234
33
39
238
33
39
209
33
39
101
33
35
38
32
32
35
32
32
49
46
46
130
128
128
37
34
34
33
30
30
35
32
32
35
32
32
58
55
55
124
123
123
181
32
36
146
32
36
33
32
32
35
32
32
77
75
75
249
249
249
100
98
98
35
32
32
163
161
161
255
255
255
255
255
255
255
255
255
255
255
255
255
255
255
255
255
255
145
144
144
35
32
32
176
175
175
113
111
111
35
32
32
35
32
32
107
32
35
218
33
38
58
55
55
99
97
97
35
32
32
35
32
32
35
32
32
43
32
32
241
33
39
234
33
39
234
33
39
224
33
39
41
32
32
35
32
32
35
32
32
35
32
32
35
32
32
85
32
34
238
33
39
234
33
39
234
33
39
198
33
38
35
32
32
31
32
32
148
33
36
234
33
39
241
33
39
238
33
39
165
33
37
91
32
34
53
32
33
28
32
32
33
32
32
35
32
32
30
27
27
128
126
126
85
82
82
72
70
70
98
95
95
128
126
126
34
31
31
100
98
98
42
36
36
220
33
38
102
32
35
35
32
32
35
32
32
134
133
133
255
255
255
255
255
255
243
243
243
196
196
196
225
224
224
255
255
255
255
255
255
255
255
255
255
255
255
254
254
254
36
33
33
72
70
70
197
196
196
183
182
182
35
32
32
35
32
32
63
32
33
235
33
39
38
23
23
121
119
119
33
30
30
35
32
32
35
32
32
28
32
32
181
33
38
235
33
39
234
33
39
237
33
39
73
32
33
34
32
32
35
32
32
35
32
32
35
32
32
36
32
32
239
33
39
234
33
39
234
33
39
226
33
39
36
32
32
35
32
32
80
32
34
172
33
37
97
33
34
30
32
32
28
32
32
35
32
32
35
32
32
35
32
32
35
32
32
35
32
32
48
46
46
155
154
154
71
69
69
31
28
28
31
28
28
26
23
23
31
28
28
122
120
120
41
27
27
240
33
39
52
32
33
35
32
32
35
32
32
193
192
192
255
255
255
255
255
255
255
255
255
255
255
255
255
255
255
255
255
255
255
255
255
255
255
255
255
255
255
146
145
145
208
208
208
255
255
255
255
255
255
224
224
224
35
32
32
35
32
32
26
32
32
221
33
38
98
31
33
136
136
136
25
22
22
35
32
32
35
32
32
34
32
32
74
32
33
237
33
39
234
33
39
235
33
39
177
33
37
29
32
32
35
32
32
35
32
32
35
32
32
29
32
32
161
33
36
235
33
39
232
33
39
228
33
39
68
32
33
34
32
32
34
32
32
34
32
32
35
32
32
35
32
32
35
32
32
35
32
32
35
32
32
35
32
32
35
32
32
32
29
29
125
124
124
32
28
28
146
144
144
77
74
74
35
32
32
35
32
32
26
23
23
143
146
145
120
33
35
199
33
37
26
32
32
35
32
32
35
32
32
234
234
234
122
120
120
164
162
162
196
196
196
238
238
238
255
255
255
255
255
255
255
255
255
255
255
255
255
255
255
252
252
252
255
255
255
255
255
255
255
255
255
255
255
255
42
39
39
35
32
32
33
32
32
94
32
34
226
33
39
56
62
62
130
128
128
35
32
32
35
32
32
35
32
32
40
32
32
223
33
39
234
33
39
234
33
39
239
33
39
43
32
32
35
32
32
35
32
32
35
32
32
34
32
32
59
32
33
120
32
35
57
32
33
39
32
32
34
32
32
35
32
32
35
32
32
35
32
32
35
32
32
35
32
32
35
32
32
35
32
32
35
32
32
35
32
32
35
32
32
98
96
96
126
125
125
54
51
51
33
30
30
39
36
36
35
32
32
35
32
32
150
149
149
45
44
44
235
33
39
80
32
34
34
32
32
35
32
32
64
62
62
171
170
170
35
32
32
35
32
32
194
193
193
242
242
242
255
255
255
255
255
255
255
255
255
255
255
255
255
255
255
255
255
255
242
242
242
206
205
205
165
164
164
158
156
156
170
168
168
35
32
32
35
32
32
41
32
32
230
33
39
84
24
25
143
142
142
34
31
31
35
32
32
35
32
32
35
32
32
200
33
38
234
33
39
234
33
39
236
33
39
88
32
34
35
32
32
35
32
32
35
32
32
35
32
32
34
32
32
31
32
32
35
32
32
35
32
32
35
32
32
35
32
32
35
32
32
35
32
32
35
32
32
35
32
32
35
32
32
35
32
32
35
32
32
33
30
30
57
54
54
162
160
160
71
69
69
114
112
112
32
29
29
35
32
32
35
32
32
30
27
27
125
124
124
95
27
28
229
33
39
41
32
32
35
32
32
35
32
32
202
202
202
84
82
82
35
32
32
214
213
213
255
255
255
255
255
255
255
255
255
255
255
255
255
255
255
255
255
255
255
255
255
240
240
240
153
152
152
60
57
57
35
32
32
41
38
38
253
253
253
47
44
44
35
32
32
34
32
32
147
33
37
200
33
38
50
55
54
110
108
108
32
29
29
35
32
32
35
32
32
117
33
35
243
33
39
222
33
39
200
33
38
82
31
33
32
30
30
35
32
32
35
32
32
35
32
32
35
32
32
35
32
32
35
32
32
35
32
32
35
32
32
35
32
32
35
32
32
35
32
32
35
32
32
35
32
32
35
32
32
35
32
32
32
29
29
68
65
65
174
172
172
45
43
43
53
50
50
33
30
30
153
151
151
41
38
38
32
29
29
136
134
134
48
52
52
214
33
39
123
33
36
34
32
32
35
32
32
53
50
50
253
253
253
35
32
32
54
51
51
255
255
255
255
255
255
255
255
255
255
255
255
255
255
255
255
255
255
255
255
255
255
255
255
255
255
255
255
255
255
254
254
254
127
126
126
35
32
32
122
120
120
121
119
119
35
32
32
35
32
32
29
32
32
220
33
39
126
31
34
117
114
114
67
65
65
35
32
32
35
32
32
37
32
32
78
33
33
40
32
32
35
32
32
94
92
92
115
113
113
33
30
30
35
32
32
35
32
32
35
32
32
35
32
32
35
32
32
35
32
32
35
32
32
35
32
32
35
32
32
35
32
32
35
32
32
35
32
32
35
32
32
33
30
30
130
129
129
109
107
107
95
93
93
136
134
134
54
52
52
35
32
32
35
32
32
36
34
34
70
67
67
91
89
89
144
31
34
207
33
38
31
32
32
35
32
32
35
32
32
138
136
136
255
255
255
126
125
125
35
32
32
255
255
255
255
255
255
255
255
255
255
255
255
255
255
255
255
255
255
255
255
255
255
255
255
255
255
255
255
255
255
255
255
255
238
238
238
35
32
32
35
32
32
236
236
236
38
36
36
35
32
32
35
32
32
96
33
34
239
33
39
38
28
28
163
162
162
30
28
28
35
32
32
35
32
32
34
32
32
35
32
32
33
30
30
99
96
96
119
117
117
124
123
123
84
81
81
24
21
21
34
31
31
35
32
32
35
32
32
35
32
32
35
32
32
35
32
32
35
32
32
35
32
32
33
30
30
22
18
18
92
90
90
109
107
107
91
88
88
122
121
121
40
37
37
29
26
26
52
49
49
35
32
32
35
32
32
40
37
37
163
162
162
50
30
31
244
33
39
82
32
34
35
32
32
35
32
32
54
51
51
255
255
255
255
255
255
255
255
255
205
204
204
119
117
117
255
255
255
255
255
255
255
255
255
255
255
255
255
255
255
255
255
255
255
255
255
255
255
255
255
255
255
255
255
255
233
232
232
35
32
32
140
139
139
255
255
255
167
166
166
35
32
32
35
32
32
25
32
32
157
33
37
216
33
39
35
29
29
163
161
161
31
28
28
35
32
32
35
32
32
37
34
34
150
148
148
29
26
26
54
51
51
153
151
151
149
147
147
138
136
136
83
80
80
77
74
74
56
54
54
40
37
37
34
31
31
42
39
39
59
56
56
79
76
76
102
100
100
163
162
162
99
97
97
80
78
78
59
56
56
62
59
59
84
81
81
33
30
30
35
32
32
35
32
32
33
30
30
160
159
159
32
22
22
227
33
39
138
33
36
28
32
32
35
32
32
35
32
32
185
184
184
228
228
228
255
255
255
255
255
255
255
255
255
255
255
255
251
251
251
255
255
255
255
255
255
255
255
255
255
255
255
255
255
255
255
255
255
255
255
255
255
255
255
255
255
255
147
146
146
184
183
183
255
255
255
255
255
255
255
255
255
63
60
60
35
32
32
35
32
32
37
32
32
215
33
39
177
33
37
42
44
44
196
195
195
36
33
33
33
30
30
82
79
79
39
37
37
35
32
32
76
73
73
35
32
32
52
49
49
97
95
95
47
44
44
39
36
36
121
119
119
181
180
180
188
188
188
162
162
162
114
111
111
64
61
61
53
50
50
89
87
87
77
74
74
145
143
143
38
35
35
32
29
29
98
95
95
51
48
48
35
32
32
38
35
35
196
195
195
32
35
35
194
33
38
206
33
38
34
32
32
35
32
32
35
32
32
90
88
88
202
201
201
35
32
32
67
64
64
204
203
203
253
253
253
255
255
255
255
255
255
255
255
255
255
255
255
255
255
255
255
255
255
255
255
255
255
255
255
255
255
255
255
255
255
255
255
255
238
238
238
255
255
255
255
255
255
255
255
255
202
202
202
246
246
246
39
36
36
35
32
32
35
32
32
40
32
32
215
33
39
180
32
36
34
41
41
181
180
180
40
37
37
34
31
31
35
32
32
35
32
32
39
36
36
35
32
32
24
21
21
113
111
111
39
36
36
86
84
84
62
59
59
65
62
62
131
130
130
68
65
65
78
76
76
31
28
28
30
27
27
101
99
99
33
30
30
37
34
34
41
38
38
35
32
32
34
31
31
37
34
34
47
45
45
179
178
178
31
39
38
189
33
37
210
33
38
38
32
32
35
32
32
35
32
32
39
36
36
250
250
250
46
43
43
35
32
32
104
102
102
206
205
205
238
238
238
255
255
255
255
255
255
255
255
255
255
255
255
255
255
255
255
255
255
255
255
255
255
255
255
255
255
255
255
255
255
255
255
255
255
255
255
249
249
249
163
161
161
58
56
56
35
32
32
140
139
139
202
201
201
35
32
32
35
32
32
35
32
32
47
32
33
204
33
38
193
33
37
35
24
24
138
138
138
105
103
103
28
25
25
35
32
32
35
32
32
35
32
32
86
84
84
69
66
66
34
31
31
112
110
110
33
30
30
35
32
32
132
131
131
30
27
27
72
69
69
31
28
28
34
31
31
106
105
105
27
24
24
35
32
32
35
32
32
35
32
32
28
25
25
110
107
107
133
133
133
36
21
21
203
33
38
197
33
38
39
32
32
35
32
32
35
32
32
38
36
36
218
217
217
81
78
78
35
32
32
113
111
111
255
255
255
255
255
255
255
255
255
255
255
255
255
255
255
255
255
255
255
255
255
255
255
255
255
255
255
255
255
255
255
255
255
255
255
255
255
255
255
255
255
255
255
255
255
199
198
198
189
189
189
118
116
116
40
37
37
35
32
32
200
199
199
171
170
170
35
32
32
35
32
32
35
32
32
35
32
32
195
33
37
237
33
39
69
27
29
73
72
72
155
154
154
55
52
52
33
30
30
34
31
31
72
69
69
31
28
28
35
32
32
32
29
29
35
32
32
36
33
33
133
132
132
32
29
29
34
31
31
35
32
32
35
32
32
69
67
67
33
30
30
34
31
31
33
30
30
59
56
56
165
164
164
66
65
65
77
29
30
241
33
40
186
33
37
32
32
32
35
32
32
35
32
32
35
32
32
183
182
182
255
255
255
116
114
114
35
32
32
224
224
224
255
255
255
255
255
255
255
255
255
255
255
255
255
255
255
255
255
255
255
255
255
255
255
255
255
255
255
255
255
255
255
255
255
255
255
255
255
255
255
255
255
255
255
255
255
255
255
255
255
255
255
255
255
255
196
196
196
35
32
32
35
32
32
237
237
237
186
185
185
35
32
32
35
32
32
35
32
32
36
32
32
115
33
35
241
33
39
184
33
37
36
35
35
85
83
83
191
190
190
64
61
61
29
26
26
34
31
31
35
32
32
35
32
32
35
32
32
36
33
33
47
44
44
35
32
32
35
32
32
35
32
32
35
32
32
34
31
31
29
26
26
72
70
70
190
189
189
78
77
77
37
35
35
190
33
38
239
33
39
105
32
35
35
32
32
35
32
32
35
32
32
35
32
32
199
198
198
255
255
255
255
255
255
255
255
255
94
91
91
214
213
213
255
255
255
255
255
255
255
255
255
255
255
255
255
255
255
255
255
255
255
255
255
255
255
255
255
255
255
255
255
255
255
255
255
255
255
255
255
255
255
255
255
255
255
255
255
255
255
255
255
255
255
255
255
255
255
255
255
35
32
32
163
161
161
255
255
255
255
255
255
194
193
193
35
32
32
36
33
33
35
32
32
31
32
32
59
32
33
173
33
37
239
33
39
158
31
34
57
29
30
78
85
84
113
113
113
143
141
141
141
139
139
91
89
89
55
52
52
32
29
29
24
20
20
34
31
31
58
55
55
94
92
92
143
141
141
142
141
141
111
110
110
73
81
81
61
28
29
164
31
35
243
33
39
165
33
37
56
32
33
32
32
32
35
32
32
35
32
32
38
35
35
212
211
211
143
141
141
171
170
170
255
255
255
255
255
255
250
250
250
173
172
172
255
255
255
255
255
255
255
255
255
255
255
255
255
255
255
255
255
255
255
255
255
255
255
255
255
255
255
255
255
255
255
255
255
255
255
255
255
255
255
255
255
255
255
255
255
255
255
255
255
255
255
255
255
255
255
255
255
57
55
55
253
253
253
255
255
255
255
255
255
209
209
209
221
221
221
60
57
57
35
32
32
35
32
32
35
32
32
28
32
32
77
33
34
184
33
37
240
33
39
196
33
38
104
29
31
58
22
23
41
28
28
78
82
82
119
122
122
142
145
145
150
153
153
141
144
144
114
118
118
75
78
78
41
26
26
60
22
23
110
30
33
203
33
38
238
33
39
181
33
37
68
33
33
28
32
32
35
32
32
35
32
32
35
32
32
67
64
64
232
231
231
115
113
113
35
32
32
35
32
32
107
105
105
241
241
241
255
255
255
255
255
255
255
255
255
255
255
255
255
255
255
255
255
255
255
255
255
255
255
255
255
255
255
255
255
255
255
255
255
255
255
255
255
255
255
255
255
255
255
255
255
255
255
255
255
255
255
255
255
255
255
255
255
255
255
255
229
229
229
247
247
247
255
255
255
255
255
255
164
163
163
35
32
32
87
84
84
255
255
255
118
116
116
35
32
32
35
32
32
35
32
32
35
32
32
34
32
32
35
32
32
118
33
35
216
33
38
233
33
39
235
33
39
232
33
39
195
33
37
171
33
37
165
33
37
173
33
37
198
33
38
234
33
39
235
33
39
233
33
39
213
33
39
109
33
35
34
32
32
35
32
32
35
32
32
35
32
32
35
32
32
36
33
33
136
134
134
255
255
255
58
56
56
35
32
32
45
42
42
185
184
184
230
230
230
176
175
175
247
247
247
255
255
255
255
255
255
255
255
255
255
255
255
255
255
255
255
255
255
255
255
255
255
255
255
255
255
255
255
255
255
255
255
255
255
255
255
255
255
255
255
255
255
255
255
255
255
255
255
255
255
255
255
255
255
255
255
255
255
255
255
255
255
255
255
255
255
102
100
100
47
44
44
35
32
32
35
32
32
46
43
43
191
190
190
229
229
229
85
83
83
35
32
32
35
32
32
35
32
32
35
32
32
33
32
32
31
32
32
47
32
33
63
32
33
77
32
33
108
33
35
127
33
35
133
33
36
126
33
35
106
33
35
76
32
33
62
32
33
46
32
32
31
32
32
33
32
32
35
32
32
35
32
32
35
32
32
35
32
32
97
95
95
233
233
233
255
255
255
255
255
255
100
98
98
35
32
32
233
233
233
255
255
255
255
255
255
255
255
255
255
255
255
255
255
255
255
255
255
255
255
255
255
255
255
255
255
255
255
255
255
255
255
255
255
255
255
255
255
255
255
255
255
255
255
255
255
255
255
255
255
255
255
255
255
255
255
255
255
255
255
255
255
255
255
255
255
255
255
255
255
255
255
255
255
255
233
233
233
249
249
249
255
255
255
255
255
255
104
102
102
35
32
32
143
141
141
255
255
255
255
255
255
210
210
210
106
104
104
35
32
32
35
32
32
35
32
32
35
32
32
35
32
32
35
32
32
35
32
32
33
32
32
31
32
32
31
32
32
31
32
32
33
32
32
35
32
32
35
32
32
35
32
32
35
32
32
35
32
32
35
32
32
37
34
34
113
111
111
218
217
217
196
196
196
155
154
154
255
255
255
255
255
255
218
217
217
59
56
56
255
255
255
255
255
255
255
255
255
255
255
255
255
255
255
255
255
255
255
255
255
255
255
255
255
255
255
255
255
255
255
255
255
255
255
255
255
255
255
255
255
255
255
255
255
255
255
255
255
255
255
255
255
255
255
255
255
255
255
255
255
255
255
255
255
255
255
255
255
255
255
255
255
255
255
255
255
255
255
255
255
255
255
255
255
255
255
255
255
255
255
255
255
35
32
32
255
255
255
255
255
255
255
255
255
100
98
98
216
216
216
250
250
250
160
159
159
63
60
60
47
44
44
37
34
34
35
32
32
35
32
32
35
32
32
35
32
32
35
32
32
35
32
32
35
32
32
35
32
32
35
32
32
38
35
35
48
45
45
67
64
64
168
167
167
255
255
255
198
197
197
44
41
41
35
32
32
35
32
32
204
203
203
255
255
255
255
255
255
118
116
116
255
255
255
255
255
255
255
255
255
255
255
255
255
255
255
255
255
255
255
255
255
255
255
255
255
255
255
255
255
255
255
255
255
255
255
255
255
255
255
255
255
255
255
255
255
255
255
255
255
255
255
255
255
255
255
255
255
255
255
255
255
255
255
255
255
255
255
255
255
255
255
255
255
255
255
255
255
255
255
255
255
255
255
255
255
255
255
255
255
255
255
255
255
138
136
136
255
255
255
255
255
255
139
137
137
35
32
32
35
32
32
44
41
41
106
104
104
255
255
255
247
247
247
240
240
240
206
205
205
154
153
153
120
118
118
101
98
98
90
88
88
101
98
98
125
123
123
159
158
158
213
212
212
248
248
248
255
255
255
255
255
255
255
255
255
231
231
231
35
32
32
35
32
32
75
72
72
130
128
128
57
54
54
209
209
209
255
255
255
249
249
249
255
255
255
255
255
255
255
255
255
255
255
255
255
255
255
255
255
255
255
255
255
255
255
255
255
255
255
255
255
255
255
255
255
255
255
255
255
255
255
255
255
255
255
255
255
255
255
255
255
255
255
255
255
255
255
255
255
255
255
255
255
255
255
255
255
255
255
255
255
255
255
255
255
255
255
255
255
255
255
255
255
255
255
255
255
255
255
255
255
255
255
255
255
228
228
228
255
255
255
206
205
205
74
71
71
152
151
151
123
121
121
35
32
32
64
62
62
255
255
255
255
255
255
241
241
241
102
100
100
128
126
126
153
152
152
186
185
185
255
255
255
255
255
255
255
255
255
122
120
120
94
91
91
63
61
61
38
36
36
238
238
238
255
255
255
255
255
255
35
32
32
151
150
150
255
255
255
255
255
255
255
255
255
227
226
226
255
255
255
255
255
255
255
255
255
255
255
255
255
255
255
255
255
255
255
255
255
255
255
255
255
255
255
255
255
255
255
255
255
255
255
255
255
255
255
255
255
255
255
255
255
255
255
255
255
255
255
255
255
255
255
255
255
255
255
255
255
255
255
255
255
255
255
255
255
255
255
255
255
255
255
255
255
255
255
255
255
255
255
255
255
255
255
255
255
255
255
255
255
255
255
255
255
255
255
255
255
255
254
254
254
195
195
195
255
255
255
255
255
255
255
255
255
171
170
170
69
66
66
255
255
255
255
255
255
182
181
181
35
32
32
35
32
32
35
32
32
41
38
38
253
253
253
255
255
255
246
245
245
35
32
32
35
32
32
53
50
50
40
37
37
88
85
85
255
255
255
255
255
255
82
80
80
243
243
243
255
255
255
255
255
255
255
255
255
255
255
255
255
255
255
255
255
255
255
255
255
255
255
255
255
255
255
255
255
255
255
255
255
255
255
255
255
255
255
255
255
255
255
255
255
255
255
255
255
255
255
255
255
255
255
255
255
255
255
255
255
255
255
255
255
255
255
255
255
255
255
255
255
255
255
255
255
255
255
255
255
255
255
255
255
255
255
255
255
255
255
255
255
255
255
255
255
255
255
255
255
255
255
255
255
255
255
255
255
255
255
255
255
255
255
255
255
255
255
255
255
255
255
255
255
255
255
255
255
255
255
255
129
127
127
255
255
255
255
255
255
103
101
101
88
86
86
209
209
209
137
135
135
35
32
32
246
246
246
255
255
255
236
236
236
35
32
32
202
202
202
255
255
255
253
253
253
103
101
101
217
217
217
255
255
255
182
181
181
255
255
255
255
255
255
255
255
255
255
255
255
255
255
255
255
255
255
255
255
255
255
255
255
255
255
255
255
255
255
255
255
255
255
255
255
255
255
255
255
255
255
255
255
255
255
255
255
255
255
255
255
255
255
255
255
255
255
255
255
255
255
255
255
255
255
255
255
255
255
255
255
255
255
255
255
255
255
255
255
255
255
255
255
255
255
255
255
255
255
255
255
255
255
255
255
255
255
255
255
255
255
255
255
255
255
255
255
255
255
255
255
255
255
255
255
255
255
255
255
255
255
255
255
255
255
255
255
255
255
255
255
255
255
255
237
237
237
255
255
255
252
252
252
164
162
162
255
255
255
255
255
255
255
255
255
204
203
203
179
178
178
255
255
255
218
217
217
162
161
161
255
255
255
255
255
255
255
255
255
255
255
255
236
236
236
255
255
255
255
255
255
255
255
255
255
255
255
255
255
255
255
255
255
255
255
255
255
255
255
255
255
255
255
255
255
255
255
255
255
255
255
255
255
255
255
255
255
255
255
255
255
255
255
255
255
255
255
255
255
255
255
255
255
255
255
255
255
255
255
255
255
255
255
255
255
255
255
255
255
255
255
255
255
255
255
255
255
255
255
255
255
255
255
255
255
255
255
255
255
255
255
255
255
255
255
255
255
255
255
255
255
255
255
255
255
255
255
255
255
255
255
255
255
255
255
255
255
255
255
255
255
255
255
255
255
255
255
255
255
255
255
255
255
255
255
255
255
255
255
255
255
255
247
247
247
255
255
255
255
255
255
255
255
255
255
255
255
255
255
255
207
206
206
255
255
255
240
240
240
255
255
255
255
255
255
255
255
255
255
255
255
255
255
255
255
255
255
255
255
255
255
255
255
255
255
255
255
255
255
255
255
255
255
255
255
255
255
255
255
255
255
255
255
255
255
255
255
255
255
255
255
255
255
255
255
255
255
255
255
255
255
255
255
255
255
255
255
255
255
255
255
255
255
255
255
255
255
255
255
255
255
255
255
255
255
255
255
255
255
255
255
255
255
255
255
255
255
255
255
255
255
255
255
255
255
255
255
255
255
255
255
255
255
255
255
255
255
255
255
255
255
255
255
255
255
255
255
255
255
255
255
255
255
255
255
255
255
255
255
255
255
255
255
255
255
255
255
255
255
255
255
255
255
255
255
255
255
255
255
255
255
255
255
255
255
255
255
255
255
255
255
255
255
255
255
255
255
255
255
255
255
255
255
255
255
255
255
255
255
255
255
255
255
255
255
255
255
255
255
255
255
255
255
255
255
255
255
255
255
255
255
255
255
255
255
255
255
255
255
255
255
255
255
255
255
255
255
255
255
255
255
255
255
255
255
255
255
255
255
255
255
255
255
255
255
255
255
255
255
255
255
255
255
255
255
255
255
255
255
255
255
255
255
255
255
255
255
255
255
255
255
255
255
255
255
255
255
255
